<mxfile host="app.diagrams.net" modified="2023-12-12T23:15:07.834Z" agent="Mozilla/5.0 (Windows NT 10.0; Win64; x64) AppleWebKit/537.36 (KHTML, like Gecko) Chrome/118.0.0.0 Safari/537.36 OPR/104.0.0.0" etag="IJy3iJOOHPahiihxGav-" version="22.1.7" type="google">
  <diagram id="R2lEEEUBdFMjLlhIrx00" name="Page-1">
    <mxGraphModel grid="1" page="1" gridSize="10" guides="1" tooltips="1" connect="1" arrows="1" fold="1" pageScale="1" pageWidth="850" pageHeight="1100" math="0" shadow="0" extFonts="Permanent Marker^https://fonts.googleapis.com/css?family=Permanent+Marker">
      <root>
        <mxCell id="0" />
        <mxCell id="1" parent="0" />
        <mxCell id="5yUrgN_zMWvTwciVYJ5c-6" style="edgeStyle=none;curved=1;rounded=0;orthogonalLoop=1;jettySize=auto;html=1;exitX=0.5;exitY=0;exitDx=0;exitDy=0;entryX=0.5;entryY=1;entryDx=0;entryDy=0;fontSize=12;startSize=8;endSize=8;endArrow=none;endFill=0;" edge="1" parent="1" source="5yUrgN_zMWvTwciVYJ5c-1" target="5yUrgN_zMWvTwciVYJ5c-3">
          <mxGeometry relative="1" as="geometry" />
        </mxCell>
        <mxCell id="5yUrgN_zMWvTwciVYJ5c-11" style="edgeStyle=none;curved=1;rounded=0;orthogonalLoop=1;jettySize=auto;html=1;exitX=1;exitY=0.5;exitDx=0;exitDy=0;entryX=0;entryY=0.5;entryDx=0;entryDy=0;fontSize=12;startSize=8;endSize=8;endArrow=none;endFill=0;" edge="1" parent="1" source="5yUrgN_zMWvTwciVYJ5c-1" target="5yUrgN_zMWvTwciVYJ5c-10">
          <mxGeometry relative="1" as="geometry" />
        </mxCell>
        <mxCell id="5yUrgN_zMWvTwciVYJ5c-35" style="edgeStyle=none;curved=1;rounded=0;orthogonalLoop=1;jettySize=auto;html=1;exitX=0.5;exitY=1;exitDx=0;exitDy=0;entryX=0.5;entryY=0;entryDx=0;entryDy=0;fontSize=12;startSize=8;endSize=8;endArrow=none;endFill=0;" edge="1" parent="1" source="5yUrgN_zMWvTwciVYJ5c-1" target="5yUrgN_zMWvTwciVYJ5c-34">
          <mxGeometry relative="1" as="geometry" />
        </mxCell>
        <mxCell id="5yUrgN_zMWvTwciVYJ5c-1" value="Usuário" style="rounded=0;whiteSpace=wrap;html=1;fontSize=16;" vertex="1" parent="1">
          <mxGeometry x="230" y="270" width="160" height="80" as="geometry" />
        </mxCell>
        <mxCell id="5yUrgN_zMWvTwciVYJ5c-2" value="TelefoneContato&lt;br&gt;" style="rounded=0;whiteSpace=wrap;html=1;fontSize=16;" vertex="1" parent="1">
          <mxGeometry x="230" y="20" width="160" height="80" as="geometry" />
        </mxCell>
        <mxCell id="5yUrgN_zMWvTwciVYJ5c-5" style="edgeStyle=none;curved=1;rounded=0;orthogonalLoop=1;jettySize=auto;html=1;exitX=0.5;exitY=0;exitDx=0;exitDy=0;entryX=0.5;entryY=1;entryDx=0;entryDy=0;fontSize=12;startSize=8;endSize=8;endArrow=none;endFill=0;" edge="1" parent="1" source="5yUrgN_zMWvTwciVYJ5c-3" target="5yUrgN_zMWvTwciVYJ5c-2">
          <mxGeometry relative="1" as="geometry" />
        </mxCell>
        <mxCell id="5yUrgN_zMWvTwciVYJ5c-3" value="Possui" style="rhombus;whiteSpace=wrap;html=1;fontSize=16;" vertex="1" parent="1">
          <mxGeometry x="270" y="150" width="80" height="80" as="geometry" />
        </mxCell>
        <mxCell id="5yUrgN_zMWvTwciVYJ5c-7" value="(1, n)" style="text;html=1;align=center;verticalAlign=middle;resizable=0;points=[];autosize=1;strokeColor=none;fillColor=none;fontSize=16;" vertex="1" parent="1">
          <mxGeometry x="300" y="110" width="60" height="30" as="geometry" />
        </mxCell>
        <mxCell id="5yUrgN_zMWvTwciVYJ5c-8" value="(1, 1)" style="text;html=1;align=center;verticalAlign=middle;resizable=0;points=[];autosize=1;strokeColor=none;fillColor=none;fontSize=16;" vertex="1" parent="1">
          <mxGeometry x="300" y="240" width="60" height="30" as="geometry" />
        </mxCell>
        <mxCell id="5yUrgN_zMWvTwciVYJ5c-9" value="Chamado" style="rounded=0;whiteSpace=wrap;html=1;fontSize=16;" vertex="1" parent="1">
          <mxGeometry x="675" y="270" width="160" height="80" as="geometry" />
        </mxCell>
        <mxCell id="5yUrgN_zMWvTwciVYJ5c-12" style="edgeStyle=none;curved=1;rounded=0;orthogonalLoop=1;jettySize=auto;html=1;exitX=1;exitY=0.5;exitDx=0;exitDy=0;entryX=0;entryY=0.5;entryDx=0;entryDy=0;fontSize=12;startSize=8;endSize=8;endArrow=none;endFill=0;" edge="1" parent="1" source="5yUrgN_zMWvTwciVYJ5c-10" target="5yUrgN_zMWvTwciVYJ5c-9">
          <mxGeometry relative="1" as="geometry" />
        </mxCell>
        <mxCell id="5yUrgN_zMWvTwciVYJ5c-10" value="Responsável" style="rhombus;whiteSpace=wrap;html=1;fontSize=16;" vertex="1" parent="1">
          <mxGeometry x="470" y="270" width="130" height="80" as="geometry" />
        </mxCell>
        <mxCell id="5yUrgN_zMWvTwciVYJ5c-13" value="(1, n)" style="text;html=1;align=center;verticalAlign=middle;resizable=0;points=[];autosize=1;strokeColor=none;fillColor=none;fontSize=16;" vertex="1" parent="1">
          <mxGeometry x="387" y="280" width="60" height="30" as="geometry" />
        </mxCell>
        <mxCell id="5yUrgN_zMWvTwciVYJ5c-14" value="(0, n)" style="text;html=1;align=center;verticalAlign=middle;resizable=0;points=[];autosize=1;strokeColor=none;fillColor=none;fontSize=16;" vertex="1" parent="1">
          <mxGeometry x="615" y="280" width="60" height="30" as="geometry" />
        </mxCell>
        <mxCell id="5yUrgN_zMWvTwciVYJ5c-16" value="&lt;div&gt;Solução de&lt;/div&gt;&lt;div&gt;Chamado&lt;/div&gt;" style="rounded=0;whiteSpace=wrap;html=1;fontSize=16;" vertex="1" parent="1">
          <mxGeometry x="675" y="30" width="160" height="80" as="geometry" />
        </mxCell>
        <mxCell id="5yUrgN_zMWvTwciVYJ5c-17" value="Possui" style="rhombus;whiteSpace=wrap;html=1;fontSize=16;" vertex="1" parent="1">
          <mxGeometry x="715" y="140" width="80" height="80" as="geometry" />
        </mxCell>
        <mxCell id="5yUrgN_zMWvTwciVYJ5c-18" style="edgeStyle=none;curved=1;rounded=0;orthogonalLoop=1;jettySize=auto;html=1;exitX=0.5;exitY=0;exitDx=0;exitDy=0;entryX=0.5;entryY=1;entryDx=0;entryDy=0;fontSize=12;startSize=8;endSize=8;endArrow=none;endFill=0;" edge="1" parent="1" source="5yUrgN_zMWvTwciVYJ5c-17" target="5yUrgN_zMWvTwciVYJ5c-16">
          <mxGeometry relative="1" as="geometry">
            <mxPoint x="320" y="160" as="sourcePoint" />
            <mxPoint x="320" y="120" as="targetPoint" />
          </mxGeometry>
        </mxCell>
        <mxCell id="5yUrgN_zMWvTwciVYJ5c-19" style="edgeStyle=none;curved=1;rounded=0;orthogonalLoop=1;jettySize=auto;html=1;entryX=0.5;entryY=1;entryDx=0;entryDy=0;fontSize=12;startSize=8;endSize=8;endArrow=none;endFill=0;exitX=0.5;exitY=0;exitDx=0;exitDy=0;" edge="1" parent="1" source="5yUrgN_zMWvTwciVYJ5c-9" target="5yUrgN_zMWvTwciVYJ5c-17">
          <mxGeometry relative="1" as="geometry">
            <mxPoint x="710" y="240" as="sourcePoint" />
            <mxPoint x="765" y="120" as="targetPoint" />
          </mxGeometry>
        </mxCell>
        <mxCell id="5yUrgN_zMWvTwciVYJ5c-21" value="(0, 1)" style="text;html=1;align=center;verticalAlign=middle;resizable=0;points=[];autosize=1;strokeColor=none;fillColor=none;fontSize=16;" vertex="1" parent="1">
          <mxGeometry x="750" y="110" width="60" height="30" as="geometry" />
        </mxCell>
        <mxCell id="5yUrgN_zMWvTwciVYJ5c-22" value="(1, 1)" style="text;html=1;align=center;verticalAlign=middle;resizable=0;points=[];autosize=1;strokeColor=none;fillColor=none;fontSize=16;" vertex="1" parent="1">
          <mxGeometry x="750" y="240" width="60" height="30" as="geometry" />
        </mxCell>
        <mxCell id="5yUrgN_zMWvTwciVYJ5c-28" style="edgeStyle=none;curved=1;rounded=0;orthogonalLoop=1;jettySize=auto;html=1;exitX=0.5;exitY=0;exitDx=0;exitDy=0;entryX=1;entryY=0;entryDx=0;entryDy=0;fontSize=12;startSize=8;endSize=8;endArrow=none;endFill=0;" edge="1" parent="1" source="5yUrgN_zMWvTwciVYJ5c-23" target="5yUrgN_zMWvTwciVYJ5c-9">
          <mxGeometry relative="1" as="geometry" />
        </mxCell>
        <mxCell id="5yUrgN_zMWvTwciVYJ5c-29" style="edgeStyle=none;curved=1;rounded=0;orthogonalLoop=1;jettySize=auto;html=1;exitX=0.5;exitY=1;exitDx=0;exitDy=0;entryX=1;entryY=1;entryDx=0;entryDy=0;fontSize=12;startSize=8;endSize=8;endArrow=none;endFill=0;" edge="1" parent="1" source="5yUrgN_zMWvTwciVYJ5c-23" target="5yUrgN_zMWvTwciVYJ5c-9">
          <mxGeometry relative="1" as="geometry" />
        </mxCell>
        <mxCell id="5yUrgN_zMWvTwciVYJ5c-23" value="Ligado" style="rhombus;whiteSpace=wrap;html=1;fontSize=16;" vertex="1" parent="1">
          <mxGeometry x="920" y="270" width="80" height="80" as="geometry" />
        </mxCell>
        <mxCell id="5yUrgN_zMWvTwciVYJ5c-30" value="(0, n)" style="text;html=1;align=center;verticalAlign=middle;resizable=0;points=[];autosize=1;strokeColor=none;fillColor=none;fontSize=16;" vertex="1" parent="1">
          <mxGeometry x="910" y="240" width="60" height="30" as="geometry" />
        </mxCell>
        <mxCell id="5yUrgN_zMWvTwciVYJ5c-31" value="(0, n)" style="text;html=1;align=center;verticalAlign=middle;resizable=0;points=[];autosize=1;strokeColor=none;fillColor=none;fontSize=16;" vertex="1" parent="1">
          <mxGeometry x="910" y="350" width="60" height="30" as="geometry" />
        </mxCell>
        <mxCell id="5yUrgN_zMWvTwciVYJ5c-40" style="edgeStyle=none;curved=1;rounded=0;orthogonalLoop=1;jettySize=auto;html=1;exitX=1;exitY=0.5;exitDx=0;exitDy=0;entryX=0;entryY=1;entryDx=0;entryDy=0;fontSize=12;startSize=8;endSize=8;endArrow=none;endFill=0;" edge="1" parent="1" source="5yUrgN_zMWvTwciVYJ5c-33" target="5yUrgN_zMWvTwciVYJ5c-39">
          <mxGeometry relative="1" as="geometry" />
        </mxCell>
        <mxCell id="5yUrgN_zMWvTwciVYJ5c-33" value="Equipamento" style="rounded=0;whiteSpace=wrap;html=1;fontSize=16;" vertex="1" parent="1">
          <mxGeometry x="455" y="561" width="160" height="80" as="geometry" />
        </mxCell>
        <mxCell id="5yUrgN_zMWvTwciVYJ5c-36" style="edgeStyle=none;curved=1;rounded=0;orthogonalLoop=1;jettySize=auto;html=1;exitX=1;exitY=1;exitDx=0;exitDy=0;entryX=0;entryY=0.5;entryDx=0;entryDy=0;fontSize=12;startSize=8;endSize=8;endArrow=none;endFill=0;" edge="1" parent="1" source="5yUrgN_zMWvTwciVYJ5c-34" target="5yUrgN_zMWvTwciVYJ5c-33">
          <mxGeometry relative="1" as="geometry" />
        </mxCell>
        <mxCell id="5yUrgN_zMWvTwciVYJ5c-34" value="Responsável" style="rhombus;whiteSpace=wrap;html=1;fontSize=16;" vertex="1" parent="1">
          <mxGeometry x="245" y="420" width="130" height="80" as="geometry" />
        </mxCell>
        <mxCell id="5yUrgN_zMWvTwciVYJ5c-37" value="(0, n)" style="text;html=1;align=center;verticalAlign=middle;resizable=0;points=[];autosize=1;strokeColor=none;fillColor=none;fontSize=16;" vertex="1" parent="1">
          <mxGeometry x="300" y="350" width="60" height="30" as="geometry" />
        </mxCell>
        <mxCell id="5yUrgN_zMWvTwciVYJ5c-38" value="(0, n)" style="text;html=1;align=center;verticalAlign=middle;resizable=0;points=[];autosize=1;strokeColor=none;fillColor=none;fontSize=16;" vertex="1" parent="1">
          <mxGeometry x="386" y="571" width="60" height="30" as="geometry" />
        </mxCell>
        <mxCell id="5yUrgN_zMWvTwciVYJ5c-41" style="edgeStyle=none;curved=1;rounded=0;orthogonalLoop=1;jettySize=auto;html=1;exitX=0.5;exitY=0;exitDx=0;exitDy=0;entryX=0.5;entryY=1;entryDx=0;entryDy=0;fontSize=12;startSize=8;endSize=8;endArrow=none;endFill=0;" edge="1" parent="1" source="5yUrgN_zMWvTwciVYJ5c-39" target="5yUrgN_zMWvTwciVYJ5c-9">
          <mxGeometry relative="1" as="geometry" />
        </mxCell>
        <mxCell id="5yUrgN_zMWvTwciVYJ5c-39" value="&lt;div&gt;Motivo&lt;/div&gt;" style="rhombus;whiteSpace=wrap;html=1;fontSize=16;" vertex="1" parent="1">
          <mxGeometry x="570" y="440" width="130" height="80" as="geometry" />
        </mxCell>
        <mxCell id="5yUrgN_zMWvTwciVYJ5c-42" value="(0, n)" style="text;html=1;align=center;verticalAlign=middle;resizable=0;points=[];autosize=1;strokeColor=none;fillColor=none;fontSize=16;" vertex="1" parent="1">
          <mxGeometry x="630" y="571" width="60" height="30" as="geometry" />
        </mxCell>
        <mxCell id="5yUrgN_zMWvTwciVYJ5c-43" value="(0, n)" style="text;html=1;align=center;verticalAlign=middle;resizable=0;points=[];autosize=1;strokeColor=none;fillColor=none;fontSize=16;" vertex="1" parent="1">
          <mxGeometry x="700" y="350" width="60" height="30" as="geometry" />
        </mxCell>
        <mxCell id="5yUrgN_zMWvTwciVYJ5c-48" style="edgeStyle=none;curved=1;rounded=0;orthogonalLoop=1;jettySize=auto;html=1;exitX=0.5;exitY=0;exitDx=0;exitDy=0;entryX=0.5;entryY=1;entryDx=0;entryDy=0;fontSize=12;startSize=8;endSize=8;endArrow=none;endFill=0;" edge="1" parent="1" source="5yUrgN_zMWvTwciVYJ5c-44" target="5yUrgN_zMWvTwciVYJ5c-46">
          <mxGeometry relative="1" as="geometry" />
        </mxCell>
        <mxCell id="5yUrgN_zMWvTwciVYJ5c-50" style="edgeStyle=none;curved=1;rounded=0;orthogonalLoop=1;jettySize=auto;html=1;exitX=0;exitY=0.5;exitDx=0;exitDy=0;fontSize=12;startSize=8;endSize=8;endArrow=none;endFill=0;" edge="1" parent="1" source="5yUrgN_zMWvTwciVYJ5c-44" target="5yUrgN_zMWvTwciVYJ5c-49">
          <mxGeometry relative="1" as="geometry" />
        </mxCell>
        <mxCell id="5yUrgN_zMWvTwciVYJ5c-44" value="Localização" style="rounded=0;whiteSpace=wrap;html=1;fontSize=16;" vertex="1" parent="1">
          <mxGeometry x="880" y="680" width="160" height="80" as="geometry" />
        </mxCell>
        <mxCell id="5yUrgN_zMWvTwciVYJ5c-47" style="edgeStyle=none;curved=1;rounded=0;orthogonalLoop=1;jettySize=auto;html=1;exitX=0;exitY=0;exitDx=0;exitDy=0;entryX=0.75;entryY=1;entryDx=0;entryDy=0;fontSize=12;startSize=8;endSize=8;endArrow=none;endFill=0;" edge="1" parent="1" source="5yUrgN_zMWvTwciVYJ5c-46" target="5yUrgN_zMWvTwciVYJ5c-9">
          <mxGeometry relative="1" as="geometry" />
        </mxCell>
        <mxCell id="5yUrgN_zMWvTwciVYJ5c-46" value="Está" style="rhombus;whiteSpace=wrap;html=1;fontSize=16;" vertex="1" parent="1">
          <mxGeometry x="920" y="440" width="80" height="80" as="geometry" />
        </mxCell>
        <mxCell id="5yUrgN_zMWvTwciVYJ5c-51" style="edgeStyle=none;curved=1;rounded=0;orthogonalLoop=1;jettySize=auto;html=1;exitX=0.5;exitY=0;exitDx=0;exitDy=0;entryX=0.5;entryY=1;entryDx=0;entryDy=0;fontSize=12;startSize=8;endSize=8;endArrow=none;endFill=0;" edge="1" parent="1" source="5yUrgN_zMWvTwciVYJ5c-49" target="5yUrgN_zMWvTwciVYJ5c-33">
          <mxGeometry relative="1" as="geometry" />
        </mxCell>
        <mxCell id="5yUrgN_zMWvTwciVYJ5c-49" value="Está" style="rhombus;whiteSpace=wrap;html=1;fontSize=16;" vertex="1" parent="1">
          <mxGeometry x="690" y="680" width="80" height="80" as="geometry" />
        </mxCell>
        <mxCell id="5yUrgN_zMWvTwciVYJ5c-52" value="(0, n)" style="text;html=1;align=center;verticalAlign=middle;resizable=0;points=[];autosize=1;strokeColor=none;fillColor=none;fontSize=16;" vertex="1" parent="1">
          <mxGeometry x="575" y="650" width="60" height="30" as="geometry" />
        </mxCell>
        <mxCell id="5yUrgN_zMWvTwciVYJ5c-53" value="(1, 1)" style="text;html=1;align=center;verticalAlign=middle;resizable=0;points=[];autosize=1;strokeColor=none;fillColor=none;fontSize=16;" vertex="1" parent="1">
          <mxGeometry x="820" y="690" width="60" height="30" as="geometry" />
        </mxCell>
        <mxCell id="5yUrgN_zMWvTwciVYJ5c-54" value="(1, 1)" style="text;html=1;align=center;verticalAlign=middle;resizable=0;points=[];autosize=1;strokeColor=none;fillColor=none;fontSize=16;" vertex="1" parent="1">
          <mxGeometry x="960" y="650" width="60" height="30" as="geometry" />
        </mxCell>
        <mxCell id="5yUrgN_zMWvTwciVYJ5c-55" value="(0, n)" style="text;html=1;align=center;verticalAlign=middle;resizable=0;points=[];autosize=1;strokeColor=none;fillColor=none;fontSize=16;" vertex="1" parent="1">
          <mxGeometry x="780" y="370" width="60" height="30" as="geometry" />
        </mxCell>
        <mxCell id="5yUrgN_zMWvTwciVYJ5c-57" style="edgeStyle=none;curved=1;rounded=0;orthogonalLoop=1;jettySize=auto;html=1;exitX=0;exitY=0.5;exitDx=0;exitDy=0;entryX=0.25;entryY=1;entryDx=0;entryDy=0;fontSize=12;startSize=8;endSize=8;endArrow=none;endFill=0;" edge="1" parent="1" source="5yUrgN_zMWvTwciVYJ5c-56" target="5yUrgN_zMWvTwciVYJ5c-44">
          <mxGeometry relative="1" as="geometry" />
        </mxCell>
        <mxCell id="5yUrgN_zMWvTwciVYJ5c-58" style="edgeStyle=none;curved=1;rounded=0;orthogonalLoop=1;jettySize=auto;html=1;exitX=1;exitY=0.5;exitDx=0;exitDy=0;entryX=0.75;entryY=1;entryDx=0;entryDy=0;fontSize=12;startSize=8;endSize=8;endArrow=none;endFill=0;" edge="1" parent="1" source="5yUrgN_zMWvTwciVYJ5c-56" target="5yUrgN_zMWvTwciVYJ5c-44">
          <mxGeometry relative="1" as="geometry" />
        </mxCell>
        <mxCell id="5yUrgN_zMWvTwciVYJ5c-56" value="Está" style="rhombus;whiteSpace=wrap;html=1;fontSize=16;" vertex="1" parent="1">
          <mxGeometry x="920" y="823" width="80" height="80" as="geometry" />
        </mxCell>
        <mxCell id="5yUrgN_zMWvTwciVYJ5c-59" value="(0, 1)" style="text;html=1;align=center;verticalAlign=middle;resizable=0;points=[];autosize=1;strokeColor=none;fillColor=none;fontSize=16;" vertex="1" parent="1">
          <mxGeometry x="1000" y="760" width="60" height="30" as="geometry" />
        </mxCell>
        <mxCell id="5yUrgN_zMWvTwciVYJ5c-60" value="(0, 1)" style="text;html=1;align=center;verticalAlign=middle;resizable=0;points=[];autosize=1;strokeColor=none;fillColor=none;fontSize=16;" vertex="1" parent="1">
          <mxGeometry x="862" y="760" width="60" height="30" as="geometry" />
        </mxCell>
        <mxCell id="K8qcXbJEYz4jHtchQ44Q-8" style="edgeStyle=orthogonalEdgeStyle;rounded=0;orthogonalLoop=1;jettySize=auto;html=1;" edge="1" parent="1" source="K8qcXbJEYz4jHtchQ44Q-2" target="5yUrgN_zMWvTwciVYJ5c-2">
          <mxGeometry relative="1" as="geometry" />
        </mxCell>
        <mxCell id="K8qcXbJEYz4jHtchQ44Q-2" value="Num" style="ellipse;whiteSpace=wrap;html=1;align=center;fontStyle=4;" vertex="1" parent="1">
          <mxGeometry x="420" y="20" width="90" height="40" as="geometry" />
        </mxCell>
        <mxCell id="K8qcXbJEYz4jHtchQ44Q-5" style="edgeStyle=orthogonalEdgeStyle;rounded=0;orthogonalLoop=1;jettySize=auto;html=1;entryX=1;entryY=0.75;entryDx=0;entryDy=0;" edge="1" parent="1" source="K8qcXbJEYz4jHtchQ44Q-4" target="5yUrgN_zMWvTwciVYJ5c-2">
          <mxGeometry relative="1" as="geometry" />
        </mxCell>
        <mxCell id="K8qcXbJEYz4jHtchQ44Q-4" value="idUsuario" style="ellipse;whiteSpace=wrap;html=1;align=center;" vertex="1" parent="1">
          <mxGeometry x="415" y="70" width="100" height="40" as="geometry" />
        </mxCell>
        <mxCell id="K8qcXbJEYz4jHtchQ44Q-13" style="edgeStyle=orthogonalEdgeStyle;rounded=0;orthogonalLoop=1;jettySize=auto;html=1;entryX=0;entryY=0;entryDx=0;entryDy=0;" edge="1" parent="1" source="K8qcXbJEYz4jHtchQ44Q-9" target="5yUrgN_zMWvTwciVYJ5c-1">
          <mxGeometry relative="1" as="geometry" />
        </mxCell>
        <mxCell id="K8qcXbJEYz4jHtchQ44Q-9" value="Nome" style="ellipse;whiteSpace=wrap;html=1;align=center;" vertex="1" parent="1">
          <mxGeometry x="90" y="200" width="100" height="40" as="geometry" />
        </mxCell>
        <mxCell id="K8qcXbJEYz4jHtchQ44Q-14" style="edgeStyle=orthogonalEdgeStyle;rounded=0;orthogonalLoop=1;jettySize=auto;html=1;entryX=0;entryY=0.25;entryDx=0;entryDy=0;" edge="1" parent="1" source="K8qcXbJEYz4jHtchQ44Q-10" target="5yUrgN_zMWvTwciVYJ5c-1">
          <mxGeometry relative="1" as="geometry" />
        </mxCell>
        <mxCell id="K8qcXbJEYz4jHtchQ44Q-10" value="id" style="ellipse;whiteSpace=wrap;html=1;align=center;fontStyle=4;" vertex="1" parent="1">
          <mxGeometry x="90" y="240" width="100" height="40" as="geometry" />
        </mxCell>
        <mxCell id="K8qcXbJEYz4jHtchQ44Q-15" style="edgeStyle=orthogonalEdgeStyle;rounded=0;orthogonalLoop=1;jettySize=auto;html=1;entryX=0;entryY=0.5;entryDx=0;entryDy=0;" edge="1" parent="1" source="K8qcXbJEYz4jHtchQ44Q-11" target="5yUrgN_zMWvTwciVYJ5c-1">
          <mxGeometry relative="1" as="geometry" />
        </mxCell>
        <mxCell id="K8qcXbJEYz4jHtchQ44Q-11" value="cpf" style="ellipse;whiteSpace=wrap;html=1;align=center;" vertex="1" parent="1">
          <mxGeometry x="90" y="280" width="100" height="40" as="geometry" />
        </mxCell>
        <mxCell id="K8qcXbJEYz4jHtchQ44Q-16" style="edgeStyle=orthogonalEdgeStyle;rounded=0;orthogonalLoop=1;jettySize=auto;html=1;entryX=0;entryY=0.75;entryDx=0;entryDy=0;" edge="1" parent="1" source="K8qcXbJEYz4jHtchQ44Q-12" target="5yUrgN_zMWvTwciVYJ5c-1">
          <mxGeometry relative="1" as="geometry" />
        </mxCell>
        <mxCell id="K8qcXbJEYz4jHtchQ44Q-12" value="dtNasc" style="ellipse;whiteSpace=wrap;html=1;align=center;" vertex="1" parent="1">
          <mxGeometry x="90" y="320" width="100" height="40" as="geometry" />
        </mxCell>
        <mxCell id="LhVi5MRoF7dt-zWU5v7N-37" style="edgeStyle=none;curved=1;rounded=0;orthogonalLoop=1;jettySize=auto;html=1;fontSize=12;startSize=8;endSize=8;" edge="1" parent="1" source="LhVi5MRoF7dt-zWU5v7N-1" target="5yUrgN_zMWvTwciVYJ5c-16">
          <mxGeometry relative="1" as="geometry" />
        </mxCell>
        <mxCell id="LhVi5MRoF7dt-zWU5v7N-1" value="id" style="ellipse;whiteSpace=wrap;html=1;align=center;fontStyle=4;fontSize=16;" vertex="1" parent="1">
          <mxGeometry x="890" width="100" height="40" as="geometry" />
        </mxCell>
        <mxCell id="LhVi5MRoF7dt-zWU5v7N-36" style="edgeStyle=none;curved=1;rounded=0;orthogonalLoop=1;jettySize=auto;html=1;fontSize=12;startSize=8;endSize=8;" edge="1" parent="1" source="LhVi5MRoF7dt-zWU5v7N-3" target="5yUrgN_zMWvTwciVYJ5c-16">
          <mxGeometry relative="1" as="geometry" />
        </mxCell>
        <mxCell id="LhVi5MRoF7dt-zWU5v7N-3" value="idChamado" style="ellipse;whiteSpace=wrap;html=1;align=center;fontSize=16;" vertex="1" parent="1">
          <mxGeometry x="890" y="50" width="100" height="40" as="geometry" />
        </mxCell>
        <mxCell id="LhVi5MRoF7dt-zWU5v7N-35" style="edgeStyle=none;curved=1;rounded=0;orthogonalLoop=1;jettySize=auto;html=1;fontSize=12;startSize=8;endSize=8;" edge="1" parent="1" source="LhVi5MRoF7dt-zWU5v7N-5" target="5yUrgN_zMWvTwciVYJ5c-16">
          <mxGeometry relative="1" as="geometry" />
        </mxCell>
        <mxCell id="LhVi5MRoF7dt-zWU5v7N-5" value="mensagem" style="ellipse;whiteSpace=wrap;html=1;align=center;fontSize=16;" vertex="1" parent="1">
          <mxGeometry x="890" y="100" width="100" height="40" as="geometry" />
        </mxCell>
        <mxCell id="LhVi5MRoF7dt-zWU5v7N-10" style="edgeStyle=none;curved=1;rounded=0;orthogonalLoop=1;jettySize=auto;html=1;entryX=1;entryY=0;entryDx=0;entryDy=0;fontSize=12;startSize=8;endSize=8;" edge="1" parent="1" source="LhVi5MRoF7dt-zWU5v7N-7" target="5yUrgN_zMWvTwciVYJ5c-9">
          <mxGeometry relative="1" as="geometry" />
        </mxCell>
        <mxCell id="LhVi5MRoF7dt-zWU5v7N-7" value="id" style="ellipse;whiteSpace=wrap;html=1;align=center;fontStyle=4;fontSize=16;" vertex="1" parent="1">
          <mxGeometry x="800" y="170" width="100" height="40" as="geometry" />
        </mxCell>
        <mxCell id="LhVi5MRoF7dt-zWU5v7N-11" style="edgeStyle=none;curved=1;rounded=0;orthogonalLoop=1;jettySize=auto;html=1;fontSize=12;startSize=8;endSize=8;" edge="1" parent="1" source="LhVi5MRoF7dt-zWU5v7N-9" target="5yUrgN_zMWvTwciVYJ5c-9">
          <mxGeometry relative="1" as="geometry" />
        </mxCell>
        <mxCell id="LhVi5MRoF7dt-zWU5v7N-9" value="descricao" style="ellipse;whiteSpace=wrap;html=1;align=center;fontSize=16;" vertex="1" parent="1">
          <mxGeometry x="900" y="170" width="100" height="40" as="geometry" />
        </mxCell>
        <mxCell id="LhVi5MRoF7dt-zWU5v7N-16" style="edgeStyle=none;curved=1;rounded=0;orthogonalLoop=1;jettySize=auto;html=1;entryX=0;entryY=0;entryDx=0;entryDy=0;fontSize=12;startSize=8;endSize=8;" edge="1" parent="1" source="LhVi5MRoF7dt-zWU5v7N-12" target="5yUrgN_zMWvTwciVYJ5c-10">
          <mxGeometry relative="1" as="geometry" />
        </mxCell>
        <mxCell id="LhVi5MRoF7dt-zWU5v7N-12" value="idUsuarioAbriu" style="ellipse;whiteSpace=wrap;html=1;align=center;fontStyle=4;fontSize=16;" vertex="1" parent="1">
          <mxGeometry x="356" y="190" width="120" height="40" as="geometry" />
        </mxCell>
        <mxCell id="LhVi5MRoF7dt-zWU5v7N-17" style="edgeStyle=none;curved=1;rounded=0;orthogonalLoop=1;jettySize=auto;html=1;entryX=0.5;entryY=0;entryDx=0;entryDy=0;fontSize=12;startSize=8;endSize=8;" edge="1" parent="1" source="LhVi5MRoF7dt-zWU5v7N-13" target="5yUrgN_zMWvTwciVYJ5c-10">
          <mxGeometry relative="1" as="geometry" />
        </mxCell>
        <mxCell id="LhVi5MRoF7dt-zWU5v7N-13" value="idChamado" style="ellipse;whiteSpace=wrap;html=1;align=center;fontStyle=4;fontSize=16;" vertex="1" parent="1">
          <mxGeometry x="475" y="190" width="100" height="40" as="geometry" />
        </mxCell>
        <mxCell id="LhVi5MRoF7dt-zWU5v7N-18" style="edgeStyle=none;curved=1;rounded=0;orthogonalLoop=1;jettySize=auto;html=1;entryX=1;entryY=0;entryDx=0;entryDy=0;fontSize=12;startSize=8;endSize=8;" edge="1" parent="1" target="5yUrgN_zMWvTwciVYJ5c-10">
          <mxGeometry relative="1" as="geometry">
            <mxPoint x="624.4340391944388" y="229.27035819259845" as="sourcePoint" />
          </mxGeometry>
        </mxCell>
        <mxCell id="LhVi5MRoF7dt-zWU5v7N-21" style="edgeStyle=none;curved=1;rounded=0;orthogonalLoop=1;jettySize=auto;html=1;exitX=0;exitY=1;exitDx=0;exitDy=0;fontSize=12;startSize=8;endSize=8;" edge="1" parent="1" source="LhVi5MRoF7dt-zWU5v7N-19">
          <mxGeometry relative="1" as="geometry">
            <mxPoint x="840" y="270" as="targetPoint" />
          </mxGeometry>
        </mxCell>
        <mxCell id="LhVi5MRoF7dt-zWU5v7N-19" value="data" style="ellipse;whiteSpace=wrap;html=1;align=center;fontSize=16;" vertex="1" parent="1">
          <mxGeometry x="1000" y="170" width="100" height="40" as="geometry" />
        </mxCell>
        <mxCell id="LhVi5MRoF7dt-zWU5v7N-22" style="edgeStyle=none;curved=1;rounded=0;orthogonalLoop=1;jettySize=auto;html=1;entryX=1;entryY=0;entryDx=0;entryDy=0;fontSize=12;startSize=8;endSize=8;" edge="1" parent="1" source="LhVi5MRoF7dt-zWU5v7N-20" target="5yUrgN_zMWvTwciVYJ5c-9">
          <mxGeometry relative="1" as="geometry" />
        </mxCell>
        <mxCell id="LhVi5MRoF7dt-zWU5v7N-20" value="urgencia" style="ellipse;whiteSpace=wrap;html=1;align=center;fontSize=16;" vertex="1" parent="1">
          <mxGeometry x="1110" y="170" width="100" height="40" as="geometry" />
        </mxCell>
        <mxCell id="LhVi5MRoF7dt-zWU5v7N-29" style="edgeStyle=none;curved=1;rounded=0;orthogonalLoop=1;jettySize=auto;html=1;entryX=0;entryY=0;entryDx=0;entryDy=0;fontSize=12;startSize=8;endSize=8;" edge="1" parent="1" source="LhVi5MRoF7dt-zWU5v7N-24" target="5yUrgN_zMWvTwciVYJ5c-33">
          <mxGeometry relative="1" as="geometry" />
        </mxCell>
        <mxCell id="LhVi5MRoF7dt-zWU5v7N-24" value="mac" style="ellipse;whiteSpace=wrap;html=1;align=center;fontStyle=4;fontSize=16;" vertex="1" parent="1">
          <mxGeometry x="145" y="510" width="100" height="40" as="geometry" />
        </mxCell>
        <mxCell id="LhVi5MRoF7dt-zWU5v7N-30" style="edgeStyle=none;curved=1;rounded=0;orthogonalLoop=1;jettySize=auto;html=1;fontSize=12;startSize=8;endSize=8;" edge="1" parent="1" source="LhVi5MRoF7dt-zWU5v7N-25">
          <mxGeometry relative="1" as="geometry">
            <mxPoint x="450" y="570" as="targetPoint" />
          </mxGeometry>
        </mxCell>
        <mxCell id="LhVi5MRoF7dt-zWU5v7N-25" value="marca" style="ellipse;whiteSpace=wrap;html=1;align=center;fontSize=16;" vertex="1" parent="1">
          <mxGeometry x="145" y="561" width="100" height="40" as="geometry" />
        </mxCell>
        <mxCell id="LhVi5MRoF7dt-zWU5v7N-31" style="edgeStyle=none;curved=1;rounded=0;orthogonalLoop=1;jettySize=auto;html=1;entryX=0;entryY=0.5;entryDx=0;entryDy=0;fontSize=12;startSize=8;endSize=8;" edge="1" parent="1" source="LhVi5MRoF7dt-zWU5v7N-26" target="5yUrgN_zMWvTwciVYJ5c-33">
          <mxGeometry relative="1" as="geometry" />
        </mxCell>
        <mxCell id="LhVi5MRoF7dt-zWU5v7N-26" value="modelo" style="ellipse;whiteSpace=wrap;html=1;align=center;fontSize=16;" vertex="1" parent="1">
          <mxGeometry x="145" y="610" width="100" height="40" as="geometry" />
        </mxCell>
        <mxCell id="LhVi5MRoF7dt-zWU5v7N-32" style="edgeStyle=none;curved=1;rounded=0;orthogonalLoop=1;jettySize=auto;html=1;fontSize=12;startSize=8;endSize=8;" edge="1" parent="1" source="LhVi5MRoF7dt-zWU5v7N-27">
          <mxGeometry relative="1" as="geometry">
            <mxPoint x="450" y="620" as="targetPoint" />
          </mxGeometry>
        </mxCell>
        <mxCell id="LhVi5MRoF7dt-zWU5v7N-27" value="data-aquisicao" style="ellipse;whiteSpace=wrap;html=1;align=center;fontSize=16;" vertex="1" parent="1">
          <mxGeometry x="130" y="650" width="130" height="40" as="geometry" />
        </mxCell>
        <mxCell id="LhVi5MRoF7dt-zWU5v7N-39" value="idUsuario" style="ellipse;whiteSpace=wrap;html=1;align=center;fontStyle=4;fontSize=16;" vertex="1" parent="1">
          <mxGeometry x="410" y="380" width="100" height="40" as="geometry" />
        </mxCell>
        <mxCell id="LhVi5MRoF7dt-zWU5v7N-42" style="edgeStyle=none;curved=1;rounded=0;orthogonalLoop=1;jettySize=auto;html=1;fontSize=12;startSize=8;endSize=8;" edge="1" parent="1" source="LhVi5MRoF7dt-zWU5v7N-40" target="5yUrgN_zMWvTwciVYJ5c-34">
          <mxGeometry relative="1" as="geometry" />
        </mxCell>
        <mxCell id="LhVi5MRoF7dt-zWU5v7N-40" value="idEquipamento" style="ellipse;whiteSpace=wrap;html=1;align=center;fontStyle=4;fontSize=16;" vertex="1" parent="1">
          <mxGeometry x="410" y="440" width="100" height="40" as="geometry" />
        </mxCell>
        <mxCell id="LhVi5MRoF7dt-zWU5v7N-41" style="edgeStyle=none;curved=1;rounded=0;orthogonalLoop=1;jettySize=auto;html=1;entryX=0.617;entryY=0.138;entryDx=0;entryDy=0;entryPerimeter=0;fontSize=12;startSize=8;endSize=8;" edge="1" parent="1" source="LhVi5MRoF7dt-zWU5v7N-39" target="5yUrgN_zMWvTwciVYJ5c-34">
          <mxGeometry relative="1" as="geometry" />
        </mxCell>
        <mxCell id="LhVi5MRoF7dt-zWU5v7N-44" style="edgeStyle=none;curved=1;rounded=0;orthogonalLoop=1;jettySize=auto;html=1;entryX=0;entryY=1;entryDx=0;entryDy=0;fontSize=12;startSize=8;endSize=8;" edge="1" parent="1" source="LhVi5MRoF7dt-zWU5v7N-43" target="5yUrgN_zMWvTwciVYJ5c-33">
          <mxGeometry relative="1" as="geometry" />
        </mxCell>
        <mxCell id="LhVi5MRoF7dt-zWU5v7N-43" value="idLocalizacao" style="ellipse;whiteSpace=wrap;html=1;align=center;fontSize=16;" vertex="1" parent="1">
          <mxGeometry x="145" y="740" width="100" height="40" as="geometry" />
        </mxCell>
        <mxCell id="LhVi5MRoF7dt-zWU5v7N-47" style="edgeStyle=none;curved=1;rounded=0;orthogonalLoop=1;jettySize=auto;html=1;exitX=0;exitY=0.5;exitDx=0;exitDy=0;entryX=1;entryY=0;entryDx=0;entryDy=0;fontSize=12;startSize=8;endSize=8;" edge="1" parent="1" source="LhVi5MRoF7dt-zWU5v7N-45" target="5yUrgN_zMWvTwciVYJ5c-39">
          <mxGeometry relative="1" as="geometry" />
        </mxCell>
        <mxCell id="LhVi5MRoF7dt-zWU5v7N-45" value="idChamado" style="ellipse;whiteSpace=wrap;html=1;align=center;fontStyle=4;fontSize=16;" vertex="1" parent="1">
          <mxGeometry x="710" y="410" width="100" height="40" as="geometry" />
        </mxCell>
        <mxCell id="LhVi5MRoF7dt-zWU5v7N-46" value="idEquipamento" style="ellipse;whiteSpace=wrap;html=1;align=center;fontStyle=4;fontSize=16;" vertex="1" parent="1">
          <mxGeometry x="710" y="460" width="120" height="40" as="geometry" />
        </mxCell>
        <mxCell id="LhVi5MRoF7dt-zWU5v7N-48" style="edgeStyle=none;curved=1;rounded=0;orthogonalLoop=1;jettySize=auto;html=1;exitX=0;exitY=0.5;exitDx=0;exitDy=0;entryX=0.948;entryY=0.558;entryDx=0;entryDy=0;entryPerimeter=0;fontSize=12;startSize=8;endSize=8;" edge="1" parent="1" source="LhVi5MRoF7dt-zWU5v7N-46" target="5yUrgN_zMWvTwciVYJ5c-39">
          <mxGeometry relative="1" as="geometry" />
        </mxCell>
        <mxCell id="LhVi5MRoF7dt-zWU5v7N-53" style="edgeStyle=none;curved=1;rounded=0;orthogonalLoop=1;jettySize=auto;html=1;exitX=0;exitY=0.5;exitDx=0;exitDy=0;entryX=1;entryY=0;entryDx=0;entryDy=0;fontSize=12;startSize=8;endSize=8;" edge="1" parent="1" source="LhVi5MRoF7dt-zWU5v7N-51" target="5yUrgN_zMWvTwciVYJ5c-23">
          <mxGeometry relative="1" as="geometry" />
        </mxCell>
        <mxCell id="LhVi5MRoF7dt-zWU5v7N-51" value="idChamado" style="ellipse;whiteSpace=wrap;html=1;align=center;fontStyle=4;fontSize=16;" vertex="1" parent="1">
          <mxGeometry x="1050" y="310" width="100" height="40" as="geometry" />
        </mxCell>
        <mxCell id="LhVi5MRoF7dt-zWU5v7N-54" style="edgeStyle=none;curved=1;rounded=0;orthogonalLoop=1;jettySize=auto;html=1;fontSize=12;startSize=8;endSize=8;" edge="1" parent="1" source="LhVi5MRoF7dt-zWU5v7N-52" target="5yUrgN_zMWvTwciVYJ5c-23">
          <mxGeometry relative="1" as="geometry" />
        </mxCell>
        <mxCell id="LhVi5MRoF7dt-zWU5v7N-52" value="idChamadoLigado" style="ellipse;whiteSpace=wrap;html=1;align=center;fontStyle=4;fontSize=16;" vertex="1" parent="1">
          <mxGeometry x="1020" y="350" width="160" height="40" as="geometry" />
        </mxCell>
        <mxCell id="LhVi5MRoF7dt-zWU5v7N-72" style="edgeStyle=none;curved=1;rounded=0;orthogonalLoop=1;jettySize=auto;html=1;exitX=0;exitY=1;exitDx=0;exitDy=0;exitPerimeter=0;entryX=0.5;entryY=0;entryDx=0;entryDy=0;fontSize=12;startSize=8;endSize=8;" edge="1" parent="1" source="LhVi5MRoF7dt-zWU5v7N-55" target="LhVi5MRoF7dt-zWU5v7N-65">
          <mxGeometry relative="1" as="geometry" />
        </mxCell>
        <mxCell id="LhVi5MRoF7dt-zWU5v7N-73" style="edgeStyle=none;curved=1;rounded=0;orthogonalLoop=1;jettySize=auto;html=1;exitX=0.5;exitY=1;exitDx=0;exitDy=0;exitPerimeter=0;entryX=0.5;entryY=0;entryDx=0;entryDy=0;fontSize=12;startSize=8;endSize=8;" edge="1" parent="1" source="LhVi5MRoF7dt-zWU5v7N-55" target="LhVi5MRoF7dt-zWU5v7N-66">
          <mxGeometry relative="1" as="geometry" />
        </mxCell>
        <mxCell id="LhVi5MRoF7dt-zWU5v7N-103" style="edgeStyle=none;curved=1;rounded=0;orthogonalLoop=1;jettySize=auto;html=1;exitX=1;exitY=1;exitDx=0;exitDy=0;exitPerimeter=0;entryX=0.5;entryY=0;entryDx=0;entryDy=0;fontSize=12;startSize=8;endSize=8;" edge="1" parent="1" source="LhVi5MRoF7dt-zWU5v7N-55" target="LhVi5MRoF7dt-zWU5v7N-99">
          <mxGeometry relative="1" as="geometry" />
        </mxCell>
        <mxCell id="LhVi5MRoF7dt-zWU5v7N-55" value="" style="verticalLabelPosition=bottom;verticalAlign=top;html=1;shape=mxgraph.basic.acute_triangle;dx=0.5;fontSize=16;" vertex="1" parent="1">
          <mxGeometry x="485" y="710" width="100" height="70" as="geometry" />
        </mxCell>
        <mxCell id="LhVi5MRoF7dt-zWU5v7N-57" value="" style="endArrow=none;html=1;rounded=0;fontSize=12;startSize=8;endSize=8;curved=1;exitX=0.5;exitY=1;exitDx=0;exitDy=0;" edge="1" parent="1" source="5yUrgN_zMWvTwciVYJ5c-33" target="LhVi5MRoF7dt-zWU5v7N-55">
          <mxGeometry relative="1" as="geometry">
            <mxPoint x="700" y="670" as="sourcePoint" />
            <mxPoint x="860" y="670" as="targetPoint" />
          </mxGeometry>
        </mxCell>
        <mxCell id="LhVi5MRoF7dt-zWU5v7N-60" style="edgeStyle=none;curved=1;rounded=0;orthogonalLoop=1;jettySize=auto;html=1;exitX=0;exitY=0.5;exitDx=0;exitDy=0;entryX=1;entryY=0.25;entryDx=0;entryDy=0;fontSize=12;startSize=8;endSize=8;" edge="1" parent="1" source="LhVi5MRoF7dt-zWU5v7N-58" target="5yUrgN_zMWvTwciVYJ5c-44">
          <mxGeometry relative="1" as="geometry" />
        </mxCell>
        <mxCell id="LhVi5MRoF7dt-zWU5v7N-58" value="id" style="ellipse;whiteSpace=wrap;html=1;align=center;fontStyle=4;fontSize=16;" vertex="1" parent="1">
          <mxGeometry x="1075" y="671" width="110" height="40" as="geometry" />
        </mxCell>
        <mxCell id="LhVi5MRoF7dt-zWU5v7N-61" style="edgeStyle=none;curved=1;rounded=0;orthogonalLoop=1;jettySize=auto;html=1;exitX=0;exitY=0.5;exitDx=0;exitDy=0;fontSize=12;startSize=8;endSize=8;" edge="1" parent="1" source="LhVi5MRoF7dt-zWU5v7N-59" target="5yUrgN_zMWvTwciVYJ5c-44">
          <mxGeometry relative="1" as="geometry" />
        </mxCell>
        <mxCell id="LhVi5MRoF7dt-zWU5v7N-59" value="idLocalizacao" style="ellipse;whiteSpace=wrap;html=1;align=center;fontSize=16;" vertex="1" parent="1">
          <mxGeometry x="1085" y="730" width="100" height="40" as="geometry" />
        </mxCell>
        <mxCell id="LhVi5MRoF7dt-zWU5v7N-63" style="edgeStyle=none;curved=1;rounded=0;orthogonalLoop=1;jettySize=auto;html=1;entryX=1;entryY=0;entryDx=0;entryDy=0;fontSize=12;startSize=8;endSize=8;" edge="1" parent="1" source="LhVi5MRoF7dt-zWU5v7N-62" target="5yUrgN_zMWvTwciVYJ5c-9">
          <mxGeometry relative="1" as="geometry" />
        </mxCell>
        <mxCell id="LhVi5MRoF7dt-zWU5v7N-62" value="idLocalizacao" style="ellipse;whiteSpace=wrap;html=1;align=center;fontSize=16;" vertex="1" parent="1">
          <mxGeometry x="1120" y="260" width="100" height="40" as="geometry" />
        </mxCell>
        <mxCell id="LhVi5MRoF7dt-zWU5v7N-98" style="edgeStyle=none;curved=1;rounded=0;orthogonalLoop=1;jettySize=auto;html=1;entryX=0.5;entryY=0;entryDx=0;entryDy=0;fontSize=12;startSize=8;endSize=8;" edge="1" parent="1" source="LhVi5MRoF7dt-zWU5v7N-64" target="LhVi5MRoF7dt-zWU5v7N-67">
          <mxGeometry relative="1" as="geometry" />
        </mxCell>
        <mxCell id="LhVi5MRoF7dt-zWU5v7N-64" value="xt" style="text;strokeColor=none;fillColor=none;html=1;align=center;verticalAlign=middle;whiteSpace=wrap;rounded=0;fontSize=16;" vertex="1" parent="1">
          <mxGeometry x="505" y="735" width="60" height="30" as="geometry" />
        </mxCell>
        <mxCell id="LhVi5MRoF7dt-zWU5v7N-65" value="Computador" style="whiteSpace=wrap;html=1;align=center;fontSize=16;" vertex="1" parent="1">
          <mxGeometry x="175" y="870" width="100" height="40" as="geometry" />
        </mxCell>
        <mxCell id="LhVi5MRoF7dt-zWU5v7N-66" value="Camera" style="whiteSpace=wrap;html=1;align=center;fontSize=16;" vertex="1" parent="1">
          <mxGeometry x="347" y="870" width="100" height="40" as="geometry" />
        </mxCell>
        <mxCell id="LhVi5MRoF7dt-zWU5v7N-67" value="Switch" style="whiteSpace=wrap;html=1;align=center;fontSize=16;" vertex="1" parent="1">
          <mxGeometry x="465" y="870" width="100" height="40" as="geometry" />
        </mxCell>
        <mxCell id="LhVi5MRoF7dt-zWU5v7N-70" value="ip" style="ellipse;whiteSpace=wrap;html=1;align=center;fontSize=16;" vertex="1" parent="1">
          <mxGeometry x="145" y="790" width="100" height="40" as="geometry" />
        </mxCell>
        <mxCell id="LhVi5MRoF7dt-zWU5v7N-71" style="edgeStyle=none;curved=1;rounded=0;orthogonalLoop=1;jettySize=auto;html=1;exitX=1;exitY=0;exitDx=0;exitDy=0;entryX=0.117;entryY=1.044;entryDx=0;entryDy=0;entryPerimeter=0;fontSize=12;startSize=8;endSize=8;" edge="1" parent="1" source="LhVi5MRoF7dt-zWU5v7N-70" target="5yUrgN_zMWvTwciVYJ5c-33">
          <mxGeometry relative="1" as="geometry" />
        </mxCell>
        <mxCell id="LhVi5MRoF7dt-zWU5v7N-94" style="edgeStyle=none;curved=1;rounded=0;orthogonalLoop=1;jettySize=auto;html=1;exitX=1;exitY=0.5;exitDx=0;exitDy=0;entryX=0;entryY=0;entryDx=0;entryDy=0;fontSize=12;startSize=8;endSize=8;" edge="1" parent="1" source="LhVi5MRoF7dt-zWU5v7N-75" target="LhVi5MRoF7dt-zWU5v7N-65">
          <mxGeometry relative="1" as="geometry" />
        </mxCell>
        <mxCell id="LhVi5MRoF7dt-zWU5v7N-75" value="nucleos" style="ellipse;whiteSpace=wrap;html=1;align=center;fontSize=16;" vertex="1" parent="1">
          <mxGeometry x="37.5" y="863" width="100" height="40" as="geometry" />
        </mxCell>
        <mxCell id="LhVi5MRoF7dt-zWU5v7N-95" style="edgeStyle=none;curved=1;rounded=0;orthogonalLoop=1;jettySize=auto;html=1;exitX=1;exitY=0.5;exitDx=0;exitDy=0;entryX=0;entryY=0.5;entryDx=0;entryDy=0;fontSize=12;startSize=8;endSize=8;" edge="1" parent="1" source="LhVi5MRoF7dt-zWU5v7N-76" target="LhVi5MRoF7dt-zWU5v7N-65">
          <mxGeometry relative="1" as="geometry" />
        </mxCell>
        <mxCell id="LhVi5MRoF7dt-zWU5v7N-76" value="qtd-ram" style="ellipse;whiteSpace=wrap;html=1;align=center;fontSize=16;" vertex="1" parent="1">
          <mxGeometry x="37.5" y="910" width="100" height="40" as="geometry" />
        </mxCell>
        <mxCell id="LhVi5MRoF7dt-zWU5v7N-78" style="edgeStyle=none;curved=1;rounded=0;orthogonalLoop=1;jettySize=auto;html=1;exitX=1;exitY=0;exitDx=0;exitDy=0;fontSize=12;startSize=8;endSize=8;" edge="1" parent="1" source="LhVi5MRoF7dt-zWU5v7N-75" target="LhVi5MRoF7dt-zWU5v7N-75">
          <mxGeometry relative="1" as="geometry" />
        </mxCell>
        <mxCell id="LhVi5MRoF7dt-zWU5v7N-84" style="edgeStyle=none;curved=1;rounded=0;orthogonalLoop=1;jettySize=auto;html=1;exitX=0.5;exitY=0;exitDx=0;exitDy=0;entryX=0.25;entryY=1;entryDx=0;entryDy=0;fontSize=12;startSize=8;endSize=8;" edge="1" parent="1" source="LhVi5MRoF7dt-zWU5v7N-82" target="LhVi5MRoF7dt-zWU5v7N-66">
          <mxGeometry relative="1" as="geometry" />
        </mxCell>
        <mxCell id="LhVi5MRoF7dt-zWU5v7N-82" value="lente" style="ellipse;whiteSpace=wrap;html=1;align=center;fontSize=16;" vertex="1" parent="1">
          <mxGeometry x="200" y="960" width="100" height="40" as="geometry" />
        </mxCell>
        <mxCell id="LhVi5MRoF7dt-zWU5v7N-85" style="edgeStyle=none;curved=1;rounded=0;orthogonalLoop=1;jettySize=auto;html=1;exitX=0.5;exitY=0;exitDx=0;exitDy=0;entryX=0.75;entryY=1;entryDx=0;entryDy=0;fontSize=12;startSize=8;endSize=8;" edge="1" parent="1" source="LhVi5MRoF7dt-zWU5v7N-83" target="LhVi5MRoF7dt-zWU5v7N-66">
          <mxGeometry relative="1" as="geometry" />
        </mxCell>
        <mxCell id="LhVi5MRoF7dt-zWU5v7N-83" value="megapixels" style="ellipse;whiteSpace=wrap;html=1;align=center;fontSize=16;" vertex="1" parent="1">
          <mxGeometry x="320" y="960" width="100" height="40" as="geometry" />
        </mxCell>
        <mxCell id="LhVi5MRoF7dt-zWU5v7N-92" style="edgeStyle=none;curved=1;rounded=0;orthogonalLoop=1;jettySize=auto;html=1;exitX=1;exitY=0;exitDx=0;exitDy=0;fontSize=12;startSize=8;endSize=8;" edge="1" parent="1">
          <mxGeometry relative="1" as="geometry">
            <mxPoint x="270.0802126497765" y="865.7486636110282" as="sourcePoint" />
            <mxPoint x="269.9558815962091" y="865.6998666197328" as="targetPoint" />
          </mxGeometry>
        </mxCell>
        <mxCell id="LhVi5MRoF7dt-zWU5v7N-96" style="edgeStyle=none;curved=1;rounded=0;orthogonalLoop=1;jettySize=auto;html=1;exitX=1;exitY=0.5;exitDx=0;exitDy=0;entryX=0;entryY=1;entryDx=0;entryDy=0;fontSize=12;startSize=8;endSize=8;" edge="1" parent="1" source="LhVi5MRoF7dt-zWU5v7N-93" target="LhVi5MRoF7dt-zWU5v7N-65">
          <mxGeometry relative="1" as="geometry" />
        </mxCell>
        <mxCell id="LhVi5MRoF7dt-zWU5v7N-93" value="qtd-armazenamento" style="ellipse;whiteSpace=wrap;html=1;align=center;fontSize=16;" vertex="1" parent="1">
          <mxGeometry x="20" y="970" width="155" height="40" as="geometry" />
        </mxCell>
        <mxCell id="LhVi5MRoF7dt-zWU5v7N-99" value="DVR" style="whiteSpace=wrap;html=1;align=center;fontSize=16;" vertex="1" parent="1">
          <mxGeometry x="585" y="870" width="100" height="40" as="geometry" />
        </mxCell>
        <mxCell id="LhVi5MRoF7dt-zWU5v7N-109" style="edgeStyle=none;curved=1;rounded=0;orthogonalLoop=1;jettySize=auto;html=1;entryX=0.25;entryY=1;entryDx=0;entryDy=0;fontSize=12;startSize=8;endSize=8;" edge="1" parent="1" source="LhVi5MRoF7dt-zWU5v7N-108" target="LhVi5MRoF7dt-zWU5v7N-67">
          <mxGeometry relative="1" as="geometry" />
        </mxCell>
        <mxCell id="LhVi5MRoF7dt-zWU5v7N-108" value="velocidade" style="ellipse;whiteSpace=wrap;html=1;align=center;fontSize=16;" vertex="1" parent="1">
          <mxGeometry x="425" y="960" width="100" height="40" as="geometry" />
        </mxCell>
        <mxCell id="LhVi5MRoF7dt-zWU5v7N-111" style="edgeStyle=none;curved=1;rounded=0;orthogonalLoop=1;jettySize=auto;html=1;exitX=0.5;exitY=0;exitDx=0;exitDy=0;entryX=0.75;entryY=1;entryDx=0;entryDy=0;fontSize=12;startSize=8;endSize=8;" edge="1" parent="1" source="LhVi5MRoF7dt-zWU5v7N-110" target="LhVi5MRoF7dt-zWU5v7N-67">
          <mxGeometry relative="1" as="geometry" />
        </mxCell>
        <mxCell id="LhVi5MRoF7dt-zWU5v7N-110" value="nro-portas" style="ellipse;whiteSpace=wrap;html=1;align=center;fontSize=16;" vertex="1" parent="1">
          <mxGeometry x="525" y="960" width="100" height="40" as="geometry" />
        </mxCell>
        <mxCell id="srmFvC3o8QGPTUsXRT3h-1" value="idUsuarioFechou" style="ellipse;whiteSpace=wrap;html=1;align=center;fontStyle=4;" vertex="1" parent="1">
          <mxGeometry x="575" y="190" width="115" height="40" as="geometry" />
        </mxCell>
        <mxCell id="srmFvC3o8QGPTUsXRT3h-2" value="Nivel" style="whiteSpace=wrap;html=1;align=center;" vertex="1" parent="1">
          <mxGeometry x="20" y="100" width="100" height="40" as="geometry" />
        </mxCell>
        <mxCell id="srmFvC3o8QGPTUsXRT3h-3" value="" style="endArrow=none;html=1;rounded=0;exitX=1;exitY=0.5;exitDx=0;exitDy=0;entryX=0.25;entryY=0;entryDx=0;entryDy=0;" edge="1" parent="1" source="srmFvC3o8QGPTUsXRT3h-2" target="5yUrgN_zMWvTwciVYJ5c-1">
          <mxGeometry relative="1" as="geometry">
            <mxPoint x="230" y="190" as="sourcePoint" />
            <mxPoint x="390" y="190" as="targetPoint" />
          </mxGeometry>
        </mxCell>
        <mxCell id="srmFvC3o8QGPTUsXRT3h-16" style="edgeStyle=orthogonalEdgeStyle;rounded=0;orthogonalLoop=1;jettySize=auto;html=1;entryX=0;entryY=0.5;entryDx=0;entryDy=0;" edge="1" parent="1" source="srmFvC3o8QGPTUsXRT3h-4" target="srmFvC3o8QGPTUsXRT3h-2">
          <mxGeometry relative="1" as="geometry" />
        </mxCell>
        <mxCell id="srmFvC3o8QGPTUsXRT3h-4" value="tipo" style="ellipse;whiteSpace=wrap;html=1;align=center;" vertex="1" parent="1">
          <mxGeometry x="-130" y="105" width="110" height="40" as="geometry" />
        </mxCell>
        <mxCell id="srmFvC3o8QGPTUsXRT3h-5" value="descricao" style="ellipse;whiteSpace=wrap;html=1;align=center;" vertex="1" parent="1">
          <mxGeometry x="-125" y="150" width="100" height="40" as="geometry" />
        </mxCell>
        <mxCell id="srmFvC3o8QGPTUsXRT3h-20" style="edgeStyle=orthogonalEdgeStyle;rounded=0;orthogonalLoop=1;jettySize=auto;html=1;entryX=0.5;entryY=1;entryDx=0;entryDy=0;" edge="1" parent="1" source="srmFvC3o8QGPTUsXRT3h-9" target="LhVi5MRoF7dt-zWU5v7N-99">
          <mxGeometry relative="1" as="geometry" />
        </mxCell>
        <mxCell id="srmFvC3o8QGPTUsXRT3h-9" value="nro-portas" style="ellipse;whiteSpace=wrap;html=1;align=center;" vertex="1" parent="1">
          <mxGeometry x="625" y="960" width="100" height="40" as="geometry" />
        </mxCell>
        <mxCell id="srmFvC3o8QGPTUsXRT3h-14" value="id" style="ellipse;whiteSpace=wrap;html=1;align=center;fontStyle=4;" vertex="1" parent="1">
          <mxGeometry x="-130" y="50" width="100" height="40" as="geometry" />
        </mxCell>
        <mxCell id="srmFvC3o8QGPTUsXRT3h-15" style="edgeStyle=orthogonalEdgeStyle;rounded=0;orthogonalLoop=1;jettySize=auto;html=1;entryX=0.376;entryY=-0.05;entryDx=0;entryDy=0;entryPerimeter=0;" edge="1" parent="1" source="srmFvC3o8QGPTUsXRT3h-14" target="srmFvC3o8QGPTUsXRT3h-2">
          <mxGeometry relative="1" as="geometry" />
        </mxCell>
        <mxCell id="srmFvC3o8QGPTUsXRT3h-17" style="edgeStyle=orthogonalEdgeStyle;rounded=0;orthogonalLoop=1;jettySize=auto;html=1;entryX=0.336;entryY=1.07;entryDx=0;entryDy=0;entryPerimeter=0;" edge="1" parent="1" source="srmFvC3o8QGPTUsXRT3h-5" target="srmFvC3o8QGPTUsXRT3h-2">
          <mxGeometry relative="1" as="geometry" />
        </mxCell>
        <mxCell id="zGvMj8vm3ZL5jDJritTr-1" value="&lt;font style=&quot;font-size: 14px;&quot;&gt;(1, 1)&lt;/font&gt;" style="text;strokeColor=none;align=center;fillColor=none;html=1;verticalAlign=middle;whiteSpace=wrap;rounded=0;" vertex="1" parent="1">
          <mxGeometry x="110" y="100" width="70" height="30" as="geometry" />
        </mxCell>
        <mxCell id="zGvMj8vm3ZL5jDJritTr-2" value="&lt;font style=&quot;font-size: 14px;&quot;&gt;(1, 1)&lt;/font&gt;" style="text;strokeColor=none;align=center;fillColor=none;html=1;verticalAlign=middle;whiteSpace=wrap;rounded=0;" vertex="1" parent="1">
          <mxGeometry x="230" y="230" width="70" height="30" as="geometry" />
        </mxCell>
        <mxCell id="zGvMj8vm3ZL5jDJritTr-3" value="idNivel" style="ellipse;whiteSpace=wrap;html=1;align=center;" vertex="1" parent="1">
          <mxGeometry x="95" y="360" width="100" height="40" as="geometry" />
        </mxCell>
        <mxCell id="zGvMj8vm3ZL5jDJritTr-4" style="edgeStyle=orthogonalEdgeStyle;rounded=0;orthogonalLoop=1;jettySize=auto;html=1;entryX=0.077;entryY=1.05;entryDx=0;entryDy=0;entryPerimeter=0;" edge="1" parent="1" source="zGvMj8vm3ZL5jDJritTr-3" target="5yUrgN_zMWvTwciVYJ5c-1">
          <mxGeometry relative="1" as="geometry" />
        </mxCell>
        <mxCell id="WEunj5_Of3CeKy0pOb4o-1" value="&lt;font style=&quot;font-size: 18px;&quot;&gt;estado&lt;/font&gt;" style="ellipse;whiteSpace=wrap;html=1;align=center;" vertex="1" parent="1">
          <mxGeometry x="1120" y="220" width="100" height="40" as="geometry" />
        </mxCell>
        <mxCell id="WEunj5_Of3CeKy0pOb4o-4" value="" style="endArrow=classic;html=1;rounded=0;exitX=0;exitY=0.5;exitDx=0;exitDy=0;" edge="1" parent="1" source="WEunj5_Of3CeKy0pOb4o-1">
          <mxGeometry width="50" height="50" relative="1" as="geometry">
            <mxPoint x="780" y="340" as="sourcePoint" />
            <mxPoint x="840" y="280" as="targetPoint" />
          </mxGeometry>
        </mxCell>
      </root>
    </mxGraphModel>
  </diagram>
</mxfile>
